<?xml version="1.0" encoding="UTF-8"?>
<svg xmlns="http://www.w3.org/2000/svg" xmlns:xlink="http://www.w3.org/1999/xlink" width="27.143pt" height="30.94pt" viewBox="0 0 27.143 30.94" version="1.1">
<defs>
<clipPath id="clip1">
  <path d="M 12 21 L 15 21 L 15 30.941406 L 12 30.941406 Z M 12 21 "/>
</clipPath>
<clipPath id="clip2">
  <path d="M 5 6 L 27.144531 6 L 27.144531 30.941406 L 5 30.941406 Z M 5 6 "/>
</clipPath>
<clipPath id="clip3">
  <path d="M 0 6 L 22 6 L 22 30.941406 L 0 30.941406 Z M 0 6 "/>
</clipPath>
</defs>
<g id="surface1">
<g clip-path="url(#clip1)" clip-rule="nonzero">
<path style="fill:none;stroke-width:1.59404;stroke-linecap:butt;stroke-linejoin:miter;stroke:rgb(0%,25.489807%,39.608765%);stroke-opacity:1;stroke-miterlimit:10;" d="M -0.0006875 -7.088594 L -0.0006875 -14.174531 " transform="matrix(1,0,0,-1,13.571,15.47)"/>
</g>
<path style="fill:none;stroke-width:1.59404;stroke-linecap:butt;stroke-linejoin:miter;stroke:rgb(0%,25.489807%,39.608765%);stroke-opacity:1;stroke-miterlimit:10;" d="M 6.136031 3.544219 L 12.27275 7.087187 " transform="matrix(1,0,0,-1,13.571,15.47)"/>
<path style="fill:none;stroke-width:1.59404;stroke-linecap:butt;stroke-linejoin:miter;stroke:rgb(0%,25.489807%,39.608765%);stroke-opacity:1;stroke-miterlimit:10;" d="M -6.137406 3.544219 L -12.274125 7.087187 " transform="matrix(1,0,0,-1,13.571,15.47)"/>
<path style="fill:none;stroke-width:0.79701;stroke-linecap:butt;stroke-linejoin:miter;stroke:rgb(0%,65.098572%,65.098572%);stroke-opacity:1;stroke-miterlimit:10;" d="M -0.0006875 4.25125 L -0.0006875 14.173125 " transform="matrix(1,0,0,-1,13.571,15.47)"/>
<g clip-path="url(#clip2)" clip-rule="nonzero">
<path style="fill:none;stroke-width:0.79701;stroke-linecap:butt;stroke-linejoin:miter;stroke:rgb(0%,65.098572%,65.098572%);stroke-opacity:1;stroke-miterlimit:10;" d="M 3.682906 -2.127656 L 12.27275 -7.088594 " transform="matrix(1,0,0,-1,13.571,15.47)"/>
</g>
<g clip-path="url(#clip3)" clip-rule="nonzero">
<path style="fill:none;stroke-width:0.79701;stroke-linecap:butt;stroke-linejoin:miter;stroke:rgb(0%,65.098572%,65.098572%);stroke-opacity:1;stroke-miterlimit:10;" d="M -3.680375 -2.127656 L -12.274125 -7.088594 " transform="matrix(1,0,0,-1,13.571,15.47)"/>
</g>
<path style="fill:none;stroke-width:1.59404;stroke-linecap:butt;stroke-linejoin:miter;stroke:rgb(0%,25.489807%,39.608765%);stroke-opacity:1;stroke-miterlimit:10;" d="M 11.413375 7.583281 L 0.862594 13.677031 C 0.386031 13.950469 -0.387406 13.950469 -0.863969 13.677031 L -11.410844 7.583281 C -11.887406 7.309844 -12.274125 6.641875 -12.274125 6.091094 L -12.274125 -6.088594 C -12.274125 -6.639375 -11.887406 -7.31125 -11.410844 -7.584688 L -0.863969 -13.674531 C -0.387406 -13.951875 0.386031 -13.951875 0.862594 -13.674531 L 11.413375 -7.584688 C 11.889938 -7.31125 12.27275 -6.639375 12.27275 -6.088594 L 12.27275 6.091094 C 12.27275 6.641875 11.889938 7.309844 11.413375 7.583281 Z M 11.413375 7.583281 " transform="matrix(1,0,0,-1,13.571,15.47)"/>
<path style="fill:none;stroke-width:1.59404;stroke-linecap:butt;stroke-linejoin:miter;stroke:rgb(0%,25.489807%,39.608765%);stroke-opacity:1;stroke-miterlimit:10;" d="M 7.08525 0.00125 C 7.08525 3.915312 3.913375 7.087187 -0.0006875 7.087187 C -3.91475 7.087187 -7.086625 3.915312 -7.086625 0.00125 C -7.086625 -3.912813 -3.91475 -7.088594 -0.0006875 -7.088594 C 3.913375 -7.088594 7.08525 -3.912813 7.08525 0.00125 Z M 7.08525 0.00125 " transform="matrix(1,0,0,-1,13.571,15.47)"/>
<path style="fill:none;stroke-width:0.79701;stroke-linecap:butt;stroke-linejoin:miter;stroke:rgb(0%,65.098572%,65.098572%);stroke-opacity:1;stroke-miterlimit:10;" d="M 4.253219 0.00125 C 4.253219 2.348906 2.346969 4.25125 -0.0006875 4.25125 C -2.348344 4.25125 -4.250687 2.348906 -4.250687 0.00125 C -4.250687 -2.346406 -2.348344 -4.252656 -0.0006875 -4.252656 C 2.346969 -4.252656 4.253219 -2.346406 4.253219 0.00125 Z M 4.253219 0.00125 " transform="matrix(1,0,0,-1,13.571,15.47)"/>
<path style="fill:none;stroke-width:1.19553;stroke-linecap:butt;stroke-linejoin:miter;stroke:rgb(71.372986%,85.096741%,29.804993%);stroke-opacity:1;stroke-miterlimit:10;" d="M -1.156937 1.1575 L 1.159469 -1.158906 " transform="matrix(1,0,0,-1,13.571,15.47)"/>
<path style="fill:none;stroke-width:1.19553;stroke-linecap:round;stroke-linejoin:miter;stroke:rgb(71.372986%,85.096741%,29.804993%);stroke-opacity:1;stroke-miterlimit:10;" d="M -0.00181198 -0.000397751 L 0.597577 0.00236441 " transform="matrix(-0.7071,-0.7071,-0.7071,0.7071,12.4125,14.3115)"/>
<path style="fill:none;stroke-width:1.19553;stroke-linecap:round;stroke-linejoin:miter;stroke:rgb(71.372986%,85.096741%,29.804993%);stroke-opacity:1;stroke-miterlimit:10;" d="M 0.000972281 0.000397751 L 0.597599 0.000397751 " transform="matrix(0.7071,0.7071,0.7071,-0.7071,14.7295,16.6285)"/>
<path style="fill:none;stroke-width:1.19553;stroke-linecap:butt;stroke-linejoin:miter;stroke:rgb(71.372986%,85.096741%,29.804993%);stroke-opacity:1;stroke-miterlimit:10;" d="M 0.745406 2.259062 L 2.257125 0.747344 " transform="matrix(1,0,0,-1,13.571,15.47)"/>
<path style="fill:none;stroke-width:1.19553;stroke-linecap:round;stroke-linejoin:miter;stroke:rgb(71.372986%,85.096741%,29.804993%);stroke-opacity:1;stroke-miterlimit:10;" d="M 0.00143986 0.00116762 L 0.598067 0.00116762 " transform="matrix(-0.7071,-0.7071,-0.7071,0.7071,14.31825,13.21113)"/>
<path style="fill:none;stroke-width:1.19553;stroke-linecap:round;stroke-linejoin:miter;stroke:rgb(71.372986%,85.096741%,29.804993%);stroke-opacity:1;stroke-miterlimit:10;" d="M -0.00130021 -0.00116762 L 0.598089 0.00159454 " transform="matrix(0.7071,0.7071,0.7071,-0.7071,15.82987,14.72275)"/>
<path style="fill:none;stroke-width:1.19553;stroke-linecap:butt;stroke-linejoin:miter;stroke:rgb(71.372986%,85.096741%,29.804993%);stroke-opacity:1;stroke-miterlimit:10;" d="M -2.2585 -0.74875 L -0.746781 -2.260469 " transform="matrix(1,0,0,-1,13.571,15.47)"/>
<path style="fill:none;stroke-width:1.19553;stroke-linecap:round;stroke-linejoin:miter;stroke:rgb(71.372986%,85.096741%,29.804993%);stroke-opacity:1;stroke-miterlimit:10;" d="M -0.0013223 0.000799038 L 0.598067 -0.00196312 " transform="matrix(-0.7071,-0.7071,-0.7071,0.7071,11.31213,16.21725)"/>
<path style="fill:none;stroke-width:1.19553;stroke-linecap:round;stroke-linejoin:miter;stroke:rgb(71.372986%,85.096741%,29.804993%);stroke-opacity:1;stroke-miterlimit:10;" d="M 0.00146196 -0.000799038 L 0.598089 -0.000799038 " transform="matrix(0.7071,0.7071,0.7071,-0.7071,12.82375,17.72887)"/>
</g>
</svg>
